<svg xmlns="http://www.w3.org/2000/svg" width="760" height="230" viewBox="0 0 760 230">
  <style>
    text { font-family: -apple-system, BlinkMacSystemFont, system-ui, sans-serif; }
  </style>
  <text x="380.0" y="24" text-anchor="middle" fill="#666666" font-size="11" letter-spacing="4" font-weight="500" opacity="0.7">COMMITS PER YEAR</text>
  <text x="380.0" y="40" text-anchor="middle" fill="#666666" font-size="9" letter-spacing="2" opacity="0.4">updated 2026-07-02</text>
  <path d="M60.0,190 L60.0,188.2 L140.0,132.1 L220.0,177.4 L300.0,186.9 L380.0,172.9 L460.0,167.9 L540.0,181.3 L620.0,170.2 L700.0,56.0 L700.0,190 Z" fill="#000000" fill-opacity="0.12" />
  <polyline points="60.0,188.2 140.0,132.1 220.0,177.4 300.0,186.9 380.0,172.9 460.0,167.9 540.0,181.3 620.0,170.2 700.0,56.0" fill="none" stroke="#000000" stroke-width="2" stroke-linejoin="round" stroke-linecap="round" />
  <circle cx="60.0" cy="188.2" r="3.5" fill="#000000" />
  <circle cx="140.0" cy="132.1" r="3.5" fill="#000000" />
  <circle cx="220.0" cy="177.4" r="3.5" fill="#000000" />
  <circle cx="300.0" cy="186.9" r="3.5" fill="#000000" />
  <circle cx="380.0" cy="172.9" r="3.5" fill="#000000" />
  <circle cx="460.0" cy="167.9" r="3.5" fill="#000000" />
  <circle cx="540.0" cy="181.3" r="3.5" fill="#000000" />
  <circle cx="620.0" cy="170.2" r="3.5" fill="#000000" />
  <circle cx="700.0" cy="56.0" r="3.5" fill="#000000" />
  <text x="60.0" y="176.2" text-anchor="middle" fill="#000000" font-size="11" font-weight="600">23</text>
  <text x="140.0" y="120.1" text-anchor="middle" fill="#000000" font-size="11" font-weight="600">727</text>
  <text x="220.0" y="165.4" text-anchor="middle" fill="#000000" font-size="11" font-weight="600">158</text>
  <text x="300.0" y="174.9" text-anchor="middle" fill="#000000" font-size="11" font-weight="600">39</text>
  <text x="380.0" y="160.9" text-anchor="middle" fill="#000000" font-size="11" font-weight="600">215</text>
  <text x="460.0" y="155.9" text-anchor="middle" fill="#000000" font-size="11" font-weight="600">278</text>
  <text x="540.0" y="169.3" text-anchor="middle" fill="#000000" font-size="11" font-weight="600">109</text>
  <text x="620.0" y="158.2" text-anchor="middle" fill="#000000" font-size="11" font-weight="600">248</text>
  <text x="700.0" y="44.0" text-anchor="middle" fill="#000000" font-size="11" font-weight="600">1682</text>
  <text x="60.0" y="216" text-anchor="middle" fill="#666666" font-size="11" letter-spacing="1.5">2018</text>
  <text x="140.0" y="216" text-anchor="middle" fill="#666666" font-size="11" letter-spacing="1.5">2019</text>
  <text x="220.0" y="216" text-anchor="middle" fill="#666666" font-size="11" letter-spacing="1.5">2020</text>
  <text x="300.0" y="216" text-anchor="middle" fill="#666666" font-size="11" letter-spacing="1.5">2021</text>
  <text x="380.0" y="216" text-anchor="middle" fill="#666666" font-size="11" letter-spacing="1.5">2022</text>
  <text x="460.0" y="216" text-anchor="middle" fill="#666666" font-size="11" letter-spacing="1.5">2023</text>
  <text x="540.0" y="216" text-anchor="middle" fill="#666666" font-size="11" letter-spacing="1.5">2024</text>
  <text x="620.0" y="216" text-anchor="middle" fill="#666666" font-size="11" letter-spacing="1.5">2025</text>
  <text x="700.0" y="216" text-anchor="middle" fill="#666666" font-size="11" letter-spacing="1.5">2026</text>
</svg>
